<?xml version="1.0" standalone="no"?>
<!DOCTYPE svg PUBLIC "-//W3C//DTD SVG 1.1//EN" "http://www.w3.org/Graphics/SVG/1.1/DTD/svg11.dtd" >
<svg xmlns="http://www.w3.org/2000/svg">
<metadata>
This is a custom SVG webfont generated by Font Squirrel.
Copyright   : Copyright c 2011 by pruFonts All rights reserved
Foundry     : PruFonts
</metadata>
<defs>
<font id="PrudentialModernBdSCn" horiz-adv-x="1024" >
<font-face units-per-em="2048" ascent="1638" descent="-410" />
<missing-glyph horiz-adv-x="569" />
<glyph unicode=" "  horiz-adv-x="569" />
<glyph unicode="&#x09;" horiz-adv-x="569" />
<glyph unicode="&#xa0;" horiz-adv-x="569" />
<glyph unicode="!" horiz-adv-x="569" d="M135 1479h299l-57 -979h-184zM139 0v291h291v-291h-291z" />
<glyph unicode="&#x22;" horiz-adv-x="681" d="M49 926v553h225v-553h-225zM408 926v553h225v-553h-225z" />
<glyph unicode="#" horiz-adv-x="1138" d="M41 422v192h219l37 250h-193v193h218l59 422h197l-58 -422h203l59 422h197l-57 -422h176v-193h-201l-37 -250h176v-192h-202l-60 -422h-196l57 422h-203l-59 -422h-197l57 422h-192zM459 614h203l36 250h-202z" />
<glyph unicode="$" horiz-adv-x="1138" d="M39 260l176 160q47 -66 114.5 -120t145.5 -71v422q-80 23 -153.5 61t-131 92t-91 123.5t-33.5 155.5q0 90 32.5 162t88 123t130 79t158.5 32v131h160v-131q129 -23 223 -81.5t166 -135.5l-160 -154q-45 53 -101 95t-128 50v-376q86 -31 165 -69t138 -92t95 -128t36 -178 q0 -92 -34 -167t-93 -128.5t-138 -83t-169 -31.5v-233h-160v235q-53 0 -113.5 21.5t-120 57.5t-112.5 82t-90 97zM299 1104q0 -68 54.5 -115t121.5 -67v344q-72 -2 -124 -43t-52 -119zM635 225q80 0 132 49.5t52 126.5q0 45 -15.5 77t-41 54.5t-58 39t-69.5 32.5v-379z" />
<glyph unicode="%" horiz-adv-x="1820" d="M70 1110q0 76 28.5 142.5t77.5 116.5t116.5 80t145.5 30t145.5 -30t117 -80t78 -116.5t28.5 -142.5t-28.5 -142.5t-78 -116.5t-117 -80t-145.5 -30t-145.5 30t-116.5 80t-77.5 116.5t-28.5 142.5zM270 1110q0 -33 13.5 -63.5t36 -53t53 -37t65.5 -14.5t66 14.5t53.5 37 t35.5 53t13 63.5t-13 63.5t-35.5 53t-53.5 37t-66 14.5t-65.5 -14.5t-53 -37t-36 -53t-13.5 -63.5zM403 -20l850 1519h174l-849 -1519h-175zM1014 369q0 76 28.5 142.5t77.5 116.5t117 79.5t145 29.5q78 0 145.5 -29.5t117 -79.5t78 -117t28.5 -142q0 -76 -28.5 -142.5 t-78 -117t-117 -80t-145.5 -29.5t-145.5 29.5t-116.5 80t-77.5 117t-28.5 142.5zM1214 369q0 -33 13.5 -64t36 -53.5t53.5 -36.5t65 -14q35 0 66 14t53.5 36.5t35.5 53.5t13 64t-13 63.5t-35.5 53t-53.5 37t-66 14.5t-65.5 -14.5t-53 -37t-36 -53t-13.5 -63.5z" />
<glyph unicode="&#x26;" horiz-adv-x="1366" d="M70 389q0 76 18 136.5t51 109.5t79 88t101 76q-59 88 -89.5 163.5t-30.5 167.5q0 94 30.5 164t83 116t121 67.5t144.5 21.5t139 -25.5t109 -70.5t73 -106.5t27 -131.5q0 -72 -26 -129t-65.5 -106t-91 -91t-102.5 -83q119 -164 264 -301q41 72 76 141.5t57 146.5l228 -63 q-35 -92 -77 -184.5t-99 -184.5q45 -31 96 -53t108 -29v-249q-53 0 -98 7t-89 24.5t-89 46t-96 73.5q-72 -72 -166 -111.5t-205 -39.5q-106 0 -195.5 25.5t-153 77.5t-98 128t-34.5 178zM352 426q0 -53 17.5 -93t47 -66.5t67.5 -40t79 -13.5q57 0 108.5 23.5t82.5 58.5 q-86 74 -158 152.5t-137 162.5q-47 -37 -77 -77.5t-30 -106.5zM432 1167q0 -66 23.5 -119t60.5 -114q29 27 60.5 53.5t57 56t42 65.5t16.5 81q0 25 -8 48.5t-24.5 44t-41 32.5t-57.5 12q-61 0 -95 -46t-34 -114z" />
<glyph unicode="'" horiz-adv-x="454" d="M115 926v553h225v-553h-225z" />
<glyph unicode="(" horiz-adv-x="681" d="M102 664q0 236 77 447.5t202 387.5h242q-59 -84 -112.5 -174t-94.5 -192.5t-64.5 -218t-23.5 -250.5t23.5 -251t64.5 -218.5t94 -193.5t113 -173h-242q-125 176 -202 388t-77 448z" />
<glyph unicode=")" horiz-adv-x="681" d="M59 -172q59 82 112.5 173t94.5 193.5t64.5 218t23.5 251.5q0 135 -23.5 250.5t-64.5 218t-94 192.5t-113 174h242q125 -176 202 -388t77 -447q0 -236 -77 -448t-202 -388h-242z" />
<glyph unicode="*" d="M135 1128l53 183l273 -140l8 11l-59 297h204l-59 -297l8 -11l273 140l53 -183l-299 -36l-4 -13l217 -213l-154 -116l-131 274h-12l-131 -274l-154 116l217 213l-4 13z" />
<glyph unicode="+" horiz-adv-x="1228" d="M57 432v250h432v432h250v-432h432v-250h-432v-432h-250v432h-432z" />
<glyph unicode="," horiz-adv-x="569" d="M139 0v291h291v-291l-129 -303h-143l104 303h-123z" />
<glyph unicode="-" horiz-adv-x="681" d="M88 444v226h504v-226h-504z" />
<glyph unicode="." horiz-adv-x="569" d="M139 0v291h291v-291h-291z" />
<glyph unicode="/" horiz-adv-x="569" d="M-119 -20l557 1519h250l-557 -1519h-250z" />
<glyph unicode="0" horiz-adv-x="1138" d="M74 492v495q0 238 127 375t368 137q242 0 369 -137t127 -375v-495q0 -238 -127 -375t-369 -137t-368.5 137t-126.5 375zM344 522q0 -90 14.5 -149.5t42 -95t69.5 -50t99 -14.5t99.5 14.5t70 50t42 95t14.5 149.5v434q0 90 -14.5 149.5t-42 95.5t-69.5 50.5t-100 14.5 q-57 0 -99 -14.5t-69.5 -50.5t-42 -95t-14.5 -150v-434z" />
<glyph unicode="1" horiz-adv-x="1138" d="M254 1130v162q82 16 132 38t84 48.5t57.5 56t50.5 64.5h161v-1499h-258v1130h-227z" />
<glyph unicode="2" horiz-adv-x="1138" d="M82 0v240q147 139 254.5 244.5t184.5 183t124 135t75 102.5t37 82t9 76q0 90 -49 146.5t-148 56.5q-104 0 -157.5 -55.5t-53.5 -139.5v-53h-270v69q0 82 32 156t91 131.5t144 91t194 33.5t198 -27.5t153.5 -82t100 -134t35.5 -186.5q0 -129 -65.5 -242.5t-160.5 -217 t-200.5 -197t-185.5 -179.5h590v-233h-932z" />
<glyph unicode="3" horiz-adv-x="1138" d="M70 434h270q0 -115 52 -168t167 -53q104 0 159.5 61.5t55.5 157.5q0 125 -72.5 177.5t-226.5 54.5v233q143 0 203.5 43t60.5 147q0 78 -49 128.5t-141 50.5q-76 0 -125 -48.5t-53 -123.5h-271q0 102 36 178t97.5 127t143.5 75.5t174 24.5q100 0 184 -25.5t145.5 -76.5 t95.5 -126t34 -173t-45 -187.5t-134 -134.5q119 -47 166 -139t47 -217q0 -111 -37.5 -193t-103 -137t-152.5 -82.5t-188 -27.5q-250 0 -371.5 122.5t-121.5 331.5z" />
<glyph unicode="4" horiz-adv-x="1138" d="M0 389v238l627 852h280v-881h207v-209h-207v-389h-258v389h-649zM225 598h424v578h-4z" />
<glyph unicode="5" horiz-adv-x="1138" d="M72 424h270q-4 -104 53.5 -157.5t157.5 -53.5q131 0 180 83t49 239q0 137 -49 210.5t-166 73.5q-70 0 -124 -30.5t-93 -83.5h-223v774h854v-234h-621v-307q59 41 123 65.5t146 24.5q119 0 199.5 -36t131 -100.5t72 -157.5t21.5 -206q0 -129 -28 -230t-87 -172 t-153.5 -108.5t-227.5 -37.5q-139 0 -231.5 37.5t-149.5 100t-80.5 142.5t-23.5 164z" />
<glyph unicode="6" horiz-adv-x="1138" d="M74 492v495q0 238 127 375t368 137q193 0 317 -103.5t140 -303.5h-270q-4 76 -57.5 125t-129.5 49q-57 0 -99 -14.5t-69.5 -50.5t-42 -95t-14.5 -150v-137q70 53 149.5 84t168.5 31q96 0 169.5 -35t123 -95.5t74 -140t24.5 -167.5q0 -115 -29 -209t-87 -163 t-150.5 -106.5t-217.5 -37.5q-242 0 -368.5 137t-126.5 375zM344 522q0 -90 14.5 -149.5t42 -95t69.5 -50t99 -14.5q106 0 159.5 71.5t53.5 200.5q0 123 -59 181.5t-154 58.5q-66 0 -119 -37t-106 -84v-82z" />
<glyph unicode="7" horiz-adv-x="1138" d="M61 1245v234h934v-136l-399 -1343h-295l410 1245h-650z" />
<glyph unicode="8" horiz-adv-x="1138" d="M74 420q0 125 48 217t167 139q-88 45 -133 134t-45 188q0 102 35.5 178t97 125t145.5 73.5t180 24.5t180.5 -24.5t145.5 -73.5t97 -125t36 -178q0 -98 -45 -187.5t-133 -134.5q119 -47 167 -139t48 -217q0 -111 -38 -193t-104.5 -137t-157.5 -82.5t-196 -27.5 q-104 0 -195 27.5t-157.5 82.5t-104.5 137t-38 193zM344 428q0 -96 50 -155.5t175 -59.5t175.5 59.5t50.5 155.5q0 104 -60.5 165.5t-165.5 61.5q-104 0 -164.5 -61.5t-60.5 -165.5zM381 1075q0 -39 14.5 -72.5t40 -59t60 -40t73.5 -14.5t74 14.5t60.5 40t40 59t14.5 72.5 t-14.5 74t-39 60.5t-59.5 41t-76 15.5t-75.5 -15.5t-59 -41t-39 -60.5t-14.5 -74z" />
<glyph unicode="9" horiz-adv-x="1138" d="M86 983q0 113 28.5 208t87 163.5t149.5 106.5t218 38q242 0 369 -137t127 -375v-495q0 -238 -127 -375t-369 -137q-193 0 -316.5 103t-139.5 304h270q4 -76 57.5 -125t128.5 -49q57 0 99.5 14.5t70 50t42 95t14.5 149.5v137q-70 -53 -150 -83.5t-168 -30.5 q-96 0 -170 34.5t-123 95t-73.5 139.5t-24.5 169zM356 993q0 -123 59.5 -181t153.5 -58q66 0 119 36.5t107 83.5v82q0 90 -14.5 149.5t-42 95.5t-69.5 50.5t-100 14.5q-106 0 -159.5 -72t-53.5 -201z" />
<glyph unicode=":" horiz-adv-x="569" d="M139 0v291h291v-291h-291zM139 614v291h291v-291h-291z" />
<glyph unicode=";" horiz-adv-x="569" d="M139 0v291h291v-291l-129 -303h-143l104 303h-123zM139 614v291h291v-291h-291z" />
<glyph unicode="&#x3c;" horiz-adv-x="1228" d="M57 459v196l1114 478v-240l-796 -336l796 -336v-239z" />
<glyph unicode="=" horiz-adv-x="1228" d="M57 182v250h1114v-250h-1114zM57 682v250h1114v-250h-1114z" />
<glyph unicode="&#x3e;" horiz-adv-x="1228" d="M57 -18v239l797 336l-797 336v240l1114 -478v-196z" />
<glyph unicode="?" horiz-adv-x="909" d="M20 1176q39 154 146.5 238.5t265.5 84.5q74 0 142.5 -22.5t122 -66.5t86 -108.5t32.5 -150.5q0 -72 -46 -144.5t-101.5 -143t-101.5 -139.5t-46 -130v-102h-225v200q0 37 41 99.5t90 132t90 136t41 111.5q0 53 -40 86t-89 33q-31 0 -61.5 -15t-54 -41t-39 -58.5 t-17.5 -65.5zM262 0v291h291v-291h-291z" />
<glyph unicode="@" horiz-adv-x="1638" d="M76 737q0 162 61.5 301.5t167 241.5t247.5 160.5t302 58.5q135 0 263 -44t226.5 -124t159 -194.5t60.5 -255.5q0 -113 -30 -200t-77 -152.5t-105.5 -111.5t-115.5 -74t-108.5 -40t-82.5 -12q-43 0 -75.5 26.5t-34.5 79.5l-4 2q-39 -43 -94.5 -75.5t-110.5 -32.5 q-66 0 -125 29.5t-104 79t-72 115t-27 136.5q0 92 30 179.5t84 155t132 108.5t174 41q76 0 138.5 -31t105.5 -96l24 102h185l-103 -500q-4 -16 -9 -37.5t-5 -42.5q0 -39 31 -38q35 0 71.5 21.5t66.5 62t49.5 103t19.5 144.5q0 123 -41 217.5t-114 158t-172 96t-216 32.5 q-129 0 -232.5 -45t-177 -124t-113.5 -186.5t-40 -234.5q0 -135 44 -242.5t122.5 -184.5t188.5 -117.5t241 -40.5q119 0 222 38.5t181 104.5h189q-106 -154 -262 -234.5t-347 -80.5q-162 0 -305 56t-250.5 157.5t-170 240.5t-62.5 303zM623 686q0 -74 42 -122t115 -48 q49 0 91 20.5t71 55.5t45.5 78t16.5 90q0 74 -45.5 120t-116.5 46q-47 0 -88 -21.5t-70 -55.5t-45 -77t-16 -86z" />
<glyph unicode="A" horiz-adv-x="1138" d="M27 0l366 1479h363l356 -1479h-270l-72 311h-391l-80 -311h-272zM430 561h281l-138 598h-4z" />
<glyph unicode="B" horiz-adv-x="1138" d="M127 0v1479h397q229 0 353 -94.5t124 -286.5q0 -197 -182 -307q57 -37 99.5 -73t68 -78t37.5 -93t12 -121q0 -111 -35.5 -190.5t-100 -132t-156 -78t-203.5 -25.5h-414zM410 233h118q111 0 168.5 58.5t57.5 157.5q0 106 -68 158t-178 52h-98v-426zM410 893h98 q96 0 153.5 49t57.5 125q0 82 -48 130t-149 48h-112v-352z" />
<glyph unicode="C" horiz-adv-x="1138" d="M102 475v529q0 137 35 231t96.5 152.5t147.5 85t188 26.5t188.5 -26.5t148 -85t96 -152.5t34.5 -231v-5h-282v41q0 123 -49.5 166t-135.5 43t-135 -43t-49 -166v-602q0 -123 49 -166t135 -43t135.5 43t49.5 166v99h282v-62q0 -137 -34.5 -231t-96 -152.5t-147.5 -85 t-189 -26.5q-102 0 -188 26.5t-147.5 85t-96.5 152.5t-35 231z" />
<glyph unicode="D" horiz-adv-x="1138" d="M127 0v1479h393q121 0 217.5 -28t163 -89.5t101 -158.5t34.5 -236v-455q0 -139 -34.5 -236.5t-101 -159t-163 -89t-217.5 -27.5h-393zM410 250h98q117 0 181.5 64.5t64.5 230.5v389q0 158 -56.5 226.5t-189.5 68.5h-98v-979z" />
<glyph unicode="E" d="M127 0v1479h774v-250h-491v-340h374v-250h-374v-389h512v-250h-795z" />
<glyph unicode="F" horiz-adv-x="909" d="M127 0v1479h737v-250h-454v-340h356v-250h-356v-639h-283z" />
<glyph unicode="G" horiz-adv-x="1138" d="M102 475v529q0 137 35 231t96.5 152.5t147.5 85t188 26.5q217 0 332 -124t123 -378h-283q0 143 -47 197.5t-125 54.5q-86 0 -135 -43t-49 -166v-602q0 -123 49 -166t135 -43q80 0 126 54.5t46 150.5v90h-198v234h481v-758h-147l-43 123q-57 -66 -121 -104.5t-144 -38.5 q-102 0 -188 26.5t-147.5 85t-96.5 152.5t-35 231z" />
<glyph unicode="H" horiz-adv-x="1251" d="M143 0v1479h283v-590h399v590h283v-1479h-283v639h-399v-639h-283z" />
<glyph unicode="I" horiz-adv-x="569" d="M143 0v1479h283v-1479h-283z" />
<glyph unicode="J" horiz-adv-x="681" d="M20 -14v250q23 -2 40.5 -4.5t35.5 -2.5q96 0 128 31t32 111v1108h283v-1166q0 -150 -96.5 -241.5t-282.5 -91.5q-47 0 -78 1t-62 5z" />
<glyph unicode="K" horiz-adv-x="1138" d="M127 0v1479h283v-611h4l366 611h310l-381 -596l424 -883h-318l-295 621l-110 -168v-453h-283z" />
<glyph unicode="L" horiz-adv-x="909" d="M127 0v1479h283v-1229h454v-250h-737z" />
<glyph unicode="M" horiz-adv-x="1593" d="M143 0v1479h396l256 -971h4l256 971h395v-1479h-242v1163h-4l-301 -1163h-213l-301 1163h-4v-1163h-242z" />
<glyph unicode="N" horiz-adv-x="1251" d="M143 0v1479h310l393 -877h4v877h258v-1479h-270l-432 954h-5v-954h-258z" />
<glyph unicode="O" horiz-adv-x="1138" d="M102 475v529q0 137 35 231t96.5 152.5t147.5 85t188 26.5t188.5 -26.5t148 -85t96 -152.5t34.5 -231v-529q0 -137 -34.5 -231t-96 -152.5t-147.5 -85t-189 -26.5q-102 0 -188 26.5t-147.5 85t-96.5 152.5t-35 231zM385 438q0 -123 49 -166t135 -43t135.5 43t49.5 166v602 q0 123 -49.5 166t-135.5 43t-135 -43t-49 -166v-602z" />
<glyph unicode="P" horiz-adv-x="1138" d="M143 0v1479h408q262 0 390 -116t128 -327t-128 -326.5t-390 -115.5h-125v-594h-283zM426 827h152q209 0 208 209q0 209 -208 209h-152v-418z" />
<glyph unicode="Q" horiz-adv-x="1138" d="M102 475v529q0 137 35 231t96.5 152.5t147.5 85t188 26.5t188.5 -26.5t148 -85t96 -152.5t34.5 -231v-529q0 -176 -59 -289q29 -23 64.5 -35t82.5 -14v-246q-104 0 -173.5 42t-123.5 104q-55 -31 -119.5 -44t-138.5 -13q-102 0 -188 26.5t-147.5 85t-96.5 152.5t-35 231z M385 438q0 -123 49 -166t135 -43q68 0 107 23q-29 41 -59.5 72.5t-65.5 44.5v245q70 -10 117 -46t82 -89h4v561q0 123 -49.5 166t-135.5 43t-135 -43t-49 -166v-602z" />
<glyph unicode="R" horiz-adv-x="1138" d="M127 0v1479h410q256 0 378.5 -116t122.5 -327q0 -139 -52 -235t-171 -142l279 -659h-303l-246 602h-135v-602h-283zM410 836h145q94 0 147.5 48t53.5 156q0 109 -53.5 157t-147.5 48h-145v-409z" />
<glyph unicode="S" horiz-adv-x="1138" d="M66 395l278 60q12 -68 35.5 -114t54.5 -74.5t64.5 -41t64.5 -12.5q74 0 124 46t50 130q0 70 -47 120t-116.5 93t-151.5 85t-151.5 96.5t-117 126t-47.5 175.5q0 193 112 303.5t333 110.5q94 0 170 -26.5t133 -74.5t95 -113.5t57 -143.5l-254 -74q-35 104 -84.5 151.5 t-122.5 47.5q-76 0 -116 -43t-40 -119q0 -55 47 -97t117 -81t151.5 -83t151.5 -103.5t117 -141.5t47 -197q0 -96 -32 -173.5t-92 -133t-148.5 -85t-198.5 -29.5q-174 0 -300 98t-183 317z" />
<glyph unicode="T" d="M41 1229v250h942v-250h-330v-1229h-282v1229h-330z" />
<glyph unicode="U" horiz-adv-x="1251" d="M143 442v1037h283v-1035q0 -106 47 -160.5t152 -54.5q201 0 200 215v1035h283v-1037q0 -123 -35 -210t-98.5 -143t-152.5 -82.5t-197 -26.5q-109 0 -198 26.5t-152.5 82.5t-97.5 143t-34 210z" />
<glyph unicode="V" horiz-adv-x="1138" d="M31 1479h278l260 -1057h4l258 1057h277l-377 -1479h-321z" />
<glyph unicode="W" horiz-adv-x="1705" d="M47 1479h262l199 -967h4l203 967h272l205 -967h4l197 967h264l-324 -1479h-272l-207 1012h-4l-223 -1012h-271z" />
<glyph unicode="X" horiz-adv-x="1138" d="M18 0l398 778l-363 701h303l213 -443l213 443h303l-358 -701l393 -778h-305l-246 522l-245 -522h-306z" />
<glyph unicode="Y" horiz-adv-x="1138" d="M25 1479h301l247 -596l240 596h301l-403 -881v-598h-283v598z" />
<glyph unicode="Z" d="M68 0v240l559 989h-502v250h819v-238l-559 -991h571v-250h-888z" />
<glyph unicode="[" horiz-adv-x="681" d="M102 -152v1631h480v-123h-254v-1385h254v-123h-480z" />
<glyph unicode="\" horiz-adv-x="569" d="M-119 1499h250l557 -1519h-250z" />
<glyph unicode="]" horiz-adv-x="681" d="M100 -29h254v1385h-254v123h480v-1631h-480v123z" />
<glyph unicode="^" horiz-adv-x="1228" d="M106 655l398 824h221l397 -824h-243l-265 578l-268 -578h-240z" />
<glyph unicode="_" d="M0 -154h1024v-102h-1024v102z" />
<glyph unicode="`" horiz-adv-x="569" d="M-49 1548h317l191 -299h-207z" />
<glyph unicode="a" d="M66 246q0 96 43 167.5t119.5 125t180 94.5t224.5 78v82q0 72 -39 102.5t-94 30.5q-59 0 -101.5 -39t-42.5 -99h-258q6 92 43 159t93.5 108t128 60.5t149.5 19.5q102 0 175 -25t118 -70t65.5 -107.5t20.5 -135.5v-707q0 -23 4 -45t10 -45h-258q-4 23 -8 48.5t-10 60.5 q-57 -57 -133 -93t-174 -36q-117 0 -186.5 65.5t-69.5 200.5zM324 289q0 -55 30.5 -86t83.5 -31q59 0 103.5 27.5t91.5 74.5v271q-57 -20 -112.5 -46t-99.5 -58.5t-70.5 -70.5t-26.5 -81z" />
<glyph unicode="b" d="M123 0v1479h258v-467q92 68 148.5 95.5t109.5 27.5q152 0 217.5 -113t65.5 -330v-270q0 -217 -65.5 -329.5t-217.5 -112.5q-43 0 -85 14t-79 36.5t-65.5 50.5t-44.5 54h-5v-135h-237zM381 252q74 -80 156 -80q27 0 49 10.5t39.5 40t28 80.5t10.5 135v238q0 82 -10.5 134 t-28 82t-40 40t-48.5 10q-82 0 -156 -80v-610z" />
<glyph unicode="c" d="M102 401v312q0 221 107.5 321.5t302.5 100.5q190 0 296.5 -96.5t111.5 -309.5h-256v49q0 66 -42 98.5t-110 32.5t-110 -32.5t-42 -98.5v-442q0 -66 42 -98.5t110 -32.5t110 32.5t42 98.5v70h258v-5q0 -221 -108.5 -321t-301.5 -100q-195 0 -302.5 100t-107.5 321z" />
<glyph unicode="d" d="M102 422v270q0 217 65.5 330t217.5 113q53 0 109.5 -28t148.5 -95v467h258v-1479h-237v135h-5q-16 -27 -44.5 -54.5t-65.5 -50t-79 -36.5t-85 -14q-152 0 -217.5 112.5t-65.5 329.5zM360 438q0 -84 10.5 -135t28 -80.5t40 -40t48.5 -10.5q82 0 156 80v610q-74 80 -156 80 q-27 0 -49 -10t-39.5 -40t-28 -82t-10.5 -134v-238z" />
<glyph unicode="e" d="M102 375v364q0 92 30 165t83 124t129 79t168 28q90 0 165 -28t129 -77t85 -118.5t31 -155.5v-260h-562v-148q0 -84 43 -122t109 -38q82 0 117 45.5t35 110.5h258q-10 -174 -111.5 -269t-298.5 -95q-92 0 -168 27.5t-129 78.5t-83 124t-30 165zM360 705h304v61 q0 74 -37 117t-115 43t-115 -43t-37 -117v-61z" />
<glyph unicode="f" horiz-adv-x="569" d="M16 856v209h117v106q0 96 19.5 160t58.5 100.5t93 52t126 15.5q29 0 59.5 -4t63.5 -8v-213h-74q-47 0 -67.5 -26.5t-20.5 -67.5v-115h154v-209h-154v-856h-258v856h-117z" />
<glyph unicode="g" d="M45 -190q0 31 15.5 56t39 46.5t51 39t50.5 32.5q-47 29 -77 66.5t-30 90.5q0 33 15.5 60.5t39 51t50 42t51.5 33.5q-94 61 -131 153t-37 234q0 90 18.5 166.5t63.5 133t117.5 88.5t181.5 32q80 0 161 -35t130 -94q49 61 101 95t124 34v-226q-16 4 -40 10.5t-40 6.5 q-20 0 -40.5 -8.5t-47.5 -16.5q12 -55 22.5 -100t10.5 -96q0 -211 -90 -325t-283 -114q-29 0 -53.5 2t-52.5 13q-10 -16 -28 -30.5t-18 -35.5q0 -35 48.5 -45t120 -12t155.5 -7.5t155.5 -30t120 -78.5t48.5 -155q0 -72 -36 -124t-100.5 -86.5t-155.5 -52t-204 -17.5 q-207 0 -316.5 54.5t-109.5 148.5zM291 -139q0 -43 60.5 -62.5t174.5 -19.5q92 0 143.5 22.5t51.5 65.5q0 29 -17.5 42t-76.5 17l-283 25q-20 -20 -36.5 -39.5t-16.5 -50.5zM328 684q0 -104 31.5 -156.5t91.5 -52.5q41 0 69.5 9.5t46 36t24.5 71.5t7 119q0 215 -135 215 q-74 0 -104.5 -55.5t-30.5 -186.5z" />
<glyph unicode="h" d="M123 0v1479h258v-492q66 61 133.5 104.5t147.5 43.5q119 0 179 -65.5t60 -221.5v-848h-258v819q0 55 -20.5 89t-73.5 34q-41 0 -84 -31.5t-84 -68.5v-842h-258z" />
<glyph unicode="i" horiz-adv-x="569" d="M156 0v1114h258v-1114h-258zM156 1307v233h258v-233h-258z" />
<glyph unicode="j" horiz-adv-x="569" d="M4 -160q84 0 118 24.5t34 78.5v1171h258v-1204q0 -80 -26 -137.5t-69 -94t-100 -54t-121 -17.5q-51 0 -94 6v227zM156 1307v233h258v-233h-258z" />
<glyph unicode="k" d="M135 0v1479h258v-797h4l275 432h289l-256 -377l278 -737h-272l-189 522l-129 -182v-340h-258z" />
<glyph unicode="l" horiz-adv-x="569" d="M156 0v1479h258v-1479h-258z" />
<glyph unicode="m" horiz-adv-x="1478" d="M123 0v1114h250v-127q63 57 128.5 102.5t147.5 45.5q72 0 123 -45.5t74 -122.5q59 66 124.5 117t149.5 51q117 0 176.5 -72t59.5 -223v-840h-258v848q0 55 -18.5 74.5t-49.5 19.5q-18 0 -40.5 -9t-46 -24.5t-43 -33t-32.5 -33.5v-842h-258v848q0 55 -19.5 74.5 t-49.5 19.5q-20 0 -44 -9t-45.5 -24.5t-40 -33t-30.5 -33.5v-842h-258z" />
<glyph unicode="n" d="M123 0v1114h250v-127q72 61 140.5 104.5t148.5 43.5q119 0 179 -65.5t60 -221.5v-848h-258v819q0 55 -20.5 89t-73.5 34q-41 0 -84 -31.5t-84 -68.5v-842h-258z" />
<glyph unicode="o" d="M102 401v312q0 221 107.5 321.5t302.5 100.5q193 0 301.5 -100.5t108.5 -321.5v-312q0 -221 -108.5 -321t-301.5 -100q-195 0 -302.5 100t-107.5 321zM360 336q0 -66 42 -98.5t110 -32.5t110 32.5t42 98.5v442q0 66 -42 98.5t-110 32.5t-110 -32.5t-42 -98.5v-442z" />
<glyph unicode="p" d="M123 -393v1507h237v-135h5q16 27 44.5 54.5t65.5 50t79 37t85 14.5q152 0 217.5 -113t65.5 -330v-270q0 -217 -65.5 -329.5t-217.5 -112.5q-53 0 -109.5 27.5t-148.5 94.5v-495h-258zM381 252q74 -80 156 -80q27 0 49 10.5t39.5 40t28 80.5t10.5 135v238q0 82 -10.5 134 t-28 82t-40 40t-48.5 10q-82 0 -156 -80v-610z" />
<glyph unicode="q" d="M102 422v270q0 217 65.5 330t217.5 113q43 0 85 -14.5t79 -37t65.5 -50t44.5 -54.5h5v135h237v-1507h-258v495q-92 -68 -148.5 -95t-109.5 -27q-152 0 -217.5 112.5t-65.5 329.5zM360 438q0 -84 10.5 -135t28 -80.5t40 -40t48.5 -10.5q82 0 156 80v610q-74 80 -156 80 q-27 0 -49 -10t-39.5 -40t-28 -82t-10.5 -134v-238z" />
<glyph unicode="r" horiz-adv-x="681" d="M123 0v1114h252v-147h4q45 84 106.5 126t159.5 42v-279q-33 10 -67.5 19.5t-69.5 9.5q-63 0 -95 -39t-32 -84v-762h-258z" />
<glyph unicode="s" horiz-adv-x="909" d="M45 297l231 63q16 -78 63.5 -125t125.5 -47q59 0 92 26t33 73q0 53 -37 88t-93.5 62.5t-122 56t-121.5 70.5t-93 103.5t-37 155.5q0 80 29.5 138.5t79 96.5t113 57.5t130.5 19.5q145 0 243.5 -76t145.5 -203l-213 -82q-27 78 -72.5 115t-105.5 37q-45 0 -74.5 -29 t-29.5 -72t37 -74.5t93 -60t121.5 -59.5t122 -73t93.5 -100.5t37 -140.5q0 -84 -28 -146t-77 -105t-117.5 -64.5t-148.5 -21.5q-59 0 -114.5 10t-108 44t-101.5 96.5t-96 166.5z" />
<glyph unicode="t" horiz-adv-x="569" d="M12 856v209h103v303h258v-303h166v-209h-166v-569q0 -41 31.5 -61.5t84.5 -20.5h27q12 0 25 2v-217q-37 -6 -74 -8t-74 -2q-127 0 -202.5 50t-75.5 171v655h-103z" />
<glyph unicode="u" d="M123 266v848h258v-819q0 -55 20.5 -89t73.5 -34q41 0 84 32t84 68v842h258v-1114h-250v127q-72 -61 -140.5 -104t-148.5 -43q-119 0 -179 65t-60 221z" />
<glyph unicode="v" horiz-adv-x="909" d="M25 1114h258l170 -717h4l170 717h258l-303 -1114h-254z" />
<glyph unicode="w" horiz-adv-x="1366" d="M27 1114h241l150 -696h4l149 696h222l157 -696h4l142 696h241l-262 -1114h-241l-158 696h-4l-137 -696h-242z" />
<glyph unicode="x" horiz-adv-x="909" d="M12 0l305 573l-282 541h274l146 -319l149 319h275l-283 -543l301 -571h-274l-168 360l-168 -360h-275z" />
<glyph unicode="y" horiz-adv-x="909" d="M23 1114h262l174 -737h4l162 737h262l-297 -1110q-31 -113 -67 -189.5t-87 -122.5t-121.5 -65.5t-167.5 -19.5q-18 0 -38.5 1t-42.5 3v225q18 -4 36 -4h39q43 0 77 16.5t58.5 39t38 48t13.5 44.5q0 49 -13.5 106t-33.5 129z" />
<glyph unicode="z" horiz-adv-x="909" d="M63 0v221l465 668h-424v225h742v-221l-473 -668h473v-225h-783z" />
<glyph unicode="{" horiz-adv-x="681" d="M-8 604v123q61 0 103 25.5t42 103.5v399q0 63 20.5 109.5t54.5 76t76 44t85 14.5h162v-123h-64q-55 0 -82 -28.5t-27 -96.5v-397q0 -88 -44 -131t-117 -55v-4q74 -12 117.5 -55.5t43.5 -131.5v-401q0 -68 27 -96.5t82 -28.5h64v-123h-162q-43 0 -85 14.5t-76 44 t-54.5 75.5t-20.5 110v403q0 78 -42 103.5t-103 25.5z" />
<glyph unicode="|" horiz-adv-x="454" d="M102 -20v1519h250v-1519h-250z" />
<glyph unicode="}" horiz-adv-x="681" d="M147 -49h64q55 0 81.5 28.5t26.5 96.5v397q0 88 44.5 131t117.5 55v5q-74 12 -118 55t-44 131v401q0 68 -26.5 96.5t-81.5 28.5h-64v123h162q43 0 85 -14.5t76 -44t54.5 -75.5t20.5 -110v-403q0 -78 42 -103.5t103 -25.5v-123q-61 0 -103 -25.5t-42 -103.5v-399 q0 -63 -20.5 -109.5t-54.5 -76t-76 -44t-85 -14.5h-162v123z" />
<glyph unicode="~" horiz-adv-x="1228" d="M106 555q18 35 43 69.5t59 61.5t77 43t98 16q57 0 121.5 -23.5t129 -51t123 -51t105.5 -23.5q29 0 54.5 14.5t47 37t42 51t38.5 57.5l78 -201q-25 -35 -51.5 -68.5t-58 -60.5t-72.5 -43t-92 -16q-66 0 -120 23.5t-107 51.5q-55 29 -118 51.5t-143 22.5q-33 0 -58.5 -14.5 t-47 -37t-38.5 -50t-30 -56.5z" />
<glyph unicode="&#xa1;" horiz-adv-x="569" d="M135 -365l58 979h184l57 -979h-299zM139 823v291h291v-291h-291z" />
<glyph unicode="&#xa2;" horiz-adv-x="1138" d="M123 401v312q0 221 109.5 321.5t316.5 100.5h32q15 0 31 -5l70 254h182l-80 -294q94 -41 144.5 -130.5t52.5 -230.5h-256v49q0 49 -33 82l-168 -653q8 -2 25 -2q176 0 176 131v70h258v-5q0 -221 -111.5 -321t-322.5 -100q-16 0 -33.5 1t-36.5 3l-73 -271h-183l86 316 q-90 47 -138 139t-48 233zM381 336q0 -33 14 -60l158 633h-4q-80 0 -124 -32.5t-44 -98.5v-442z" />
<glyph unicode="&#xa3;" horiz-adv-x="1138" d="M33 651v180h170q-12 66 -21.5 134.5t-9.5 134.5q0 98 34 173t91 125t133 75.5t160 25.5q250 0 363.5 -116.5t113.5 -321.5h-258q-8 96 -49 154.5t-146 58.5q-80 0 -126 -50t-46 -134q0 -70 10.5 -133.5t20.5 -125.5h270v-180h-245q0 -20 -2 -64t-8.5 -96.5t-16.5 -103.5 t-25 -84q57 -37 117 -63.5t137 -26.5q78 0 109 60.5t37 172.5h246q0 -90 -14.5 -175t-55.5 -149.5t-112.5 -103t-188.5 -38.5q-53 0 -94 5t-83 19t-91.5 40t-116.5 69q-41 -35 -74 -60.5t-66.5 -42t-69.5 -23.5t-79 -7v249q47 2 83 28t59.5 70t35 103t11.5 131q0 41 -7 90 h-196z" />
<glyph unicode="&#xa4;" horiz-adv-x="1138" d="M39 328l115 114q-45 53 -69 132t-24 165t24 165t69 132l-115 115l119 119l116 -119q49 47 128 73.5t167 26.5t167 -26.5t128 -73.5l117 119l119 -119l-115 -115q45 -53 68.5 -132t23.5 -165t-23.5 -164.5t-68.5 -132.5l115 -114l-119 -119l-117 119q-49 -47 -128 -74 t-167 -27t-166.5 27t-128.5 74l-116 -119zM291 739q0 -63 19.5 -118.5t55 -96.5t87 -64.5t116.5 -23.5q66 0 117 23.5t87 64.5t55.5 96.5t19.5 118.5t-19.5 118.5t-55.5 96.5t-87 64.5t-117 23.5t-117 -23.5t-86.5 -64.5t-55 -96.5t-19.5 -118.5z" />
<glyph unicode="&#xa5;" horiz-adv-x="1138" d="M37 1479h250l286 -660l279 660h250l-256 -553h176v-181h-258l-66 -147h324v-180h-332v-418h-241v418h-332v180h323l-65 147h-258v181h176z" />
<glyph unicode="&#xa6;" horiz-adv-x="454" d="M102 -20v581h250v-581h-250zM102 918v581h250v-581h-250z" />
<glyph unicode="&#xa7;" d="M106 766q0 70 15.5 117t43.5 77.5t67.5 47t86.5 24.5q-47 55 -71.5 106.5t-24.5 123.5q0 49 20.5 92t57.5 75.5t87 51t110 18.5q106 0 182 -39t143 -125l-139 -110q-33 39 -74 70.5t-94 31.5q-41 0 -68.5 -24.5t-27.5 -61.5q0 -39 37 -86t92 -99t119.5 -109.5t120 -120 t92.5 -128t37 -135.5q0 -102 -65 -159.5t-159 -73.5q47 -49 77 -109.5t30 -130.5q0 -63 -24.5 -112.5t-64.5 -82t-94.5 -50t-111.5 -17.5q-66 0 -114 13.5t-85 37t-68.5 55t-62.5 68.5l139 109q23 -43 70 -77t115 -34q41 0 72.5 25.5t31.5 72.5q0 43 -37 94.5t-92 107.5 t-119.5 115.5t-120 119t-92.5 118t-37 113.5zM303 821q0 -14 5 -31.5t19.5 -40t39 -52t63.5 -68.5q84 -88 133 -126t78 -38q39 0 59.5 26.5t20.5 63.5q0 12 -6 26.5t-21.5 36t-42 51t-67.5 74.5q-72 78 -123 116t-78 38q-31 0 -54.5 -20.5t-25.5 -55.5z" />
<glyph unicode="&#xa8;" horiz-adv-x="569" d="M-33 1266v233h246v-233h-246zM356 1266v233h246v-233h-246z" />
<glyph unicode="&#xa9;" horiz-adv-x="1638" d="M35 739q0 178 64.5 319.5t174 240t251 149.5t294.5 51q154 0 295 -51t251 -149.5t174.5 -239.5t64.5 -320q0 -178 -64.5 -319t-174.5 -239.5t-251 -149.5t-295 -51t-295 51t-250.5 149.5t-174 239.5t-64.5 319zM268 739q0 -129 43 -235.5t118 -183t175.5 -118.5 t214.5 -42q113 0 213.5 42t175 118.5t118.5 183t44 235.5t-44 235.5t-118.5 183.5t-175 119t-213.5 42q-115 0 -215 -42t-175 -119t-118 -183.5t-43 -235.5zM426 745q0 94 28.5 176.5t83 140.5t132.5 92t176 34q137 0 237.5 -79t124.5 -232h-176q-14 72 -67.5 101.5 t-118.5 29.5q-100 0 -153.5 -70t-53.5 -188q0 -115 57.5 -191t153.5 -76q76 0 125 34t57 108h185q-12 -78 -46 -138.5t-83.5 -101.5t-111 -61.5t-126.5 -20.5q-96 0 -175 34t-134.5 93t-85 140t-29.5 175z" />
<glyph unicode="&#xaa;" horiz-adv-x="614" d="M20 967q0 57 28 101t76 77t112.5 57.5t136.5 46.5v45q0 61 -70 62q-39 0 -62.5 -21.5t-23.5 -50.5h-184q4 63 28.5 103t61.5 65q41 29 87 38t99 9q135 0 191.5 -55t56.5 -148v-424q0 -14 2 -27.5t6 -25.5h-176q-4 12 -5 28.5t-5 37.5q-31 -35 -80 -56.5t-113 -21.5 q-76 0 -121 39t-45 121zM205 993q0 -29 17.5 -40t39.5 -11q39 0 65.5 16.5t45.5 45.5v118q-63 -25 -115.5 -54.5t-52.5 -74.5z" />
<glyph unicode="&#xab;" horiz-adv-x="1138" d="M123 557l250 328h225l-250 -328l250 -328h-225zM541 557l250 328h225l-250 -328l250 -328h-225z" />
<glyph unicode="&#xac;" horiz-adv-x="1228" d="M57 682v250h1114v-750h-249v500h-865z" />
<glyph unicode="&#xad;" horiz-adv-x="681" d="M88 444v226h504v-226h-504z" />
<glyph unicode="&#xae;" horiz-adv-x="1638" d="M35 739q0 178 64.5 319.5t174 240t251 149.5t294.5 51q154 0 295 -51t251 -149.5t174.5 -239.5t64.5 -320q0 -178 -64.5 -319t-174.5 -239.5t-251 -149.5t-295 -51t-295 51t-250.5 149.5t-174 239.5t-64.5 319zM268 739q0 -129 43 -235.5t118 -183t175.5 -118.5 t214.5 -42q113 0 213.5 42t175 118.5t118.5 183t44 235.5t-44 235.5t-118.5 183.5t-175 119t-213.5 42q-115 0 -215 -42t-175 -119t-118 -183.5t-43 -235.5zM510 324v833h313q164 0 253 -54t89 -198q0 -115 -59 -165t-148 -56l193 -360h-199l-178 342h-84v-342h-180z M690 813h158q76 0 102.5 23.5t26.5 87.5q0 47 -34 66.5t-126 19.5h-127v-197z" />
<glyph unicode="&#xaf;" horiz-adv-x="569" d="M-72 1311v151h713v-151h-713z" />
<glyph unicode="&#xb0;" horiz-adv-x="819" d="M115 1206q0 61 22.5 114.5t62.5 93.5t94 62.5t116 22.5q61 0 115.5 -22.5t94 -62.5t62.5 -93t23 -115q0 -61 -23 -114.5t-62.5 -93.5t-94 -62.5t-115.5 -22.5t-115.5 22.5t-94.5 62.5t-62.5 93.5t-22.5 114.5zM242 1206q0 -74 47 -126t121 -52t121 52.5t47 125.5 q0 74 -47.5 126t-120.5 52q-74 0 -121 -52t-47 -126z" />
<glyph unicode="&#xb1;" horiz-adv-x="1228" d="M57 0v250h1114v-250h-1114zM57 590v250h432v274h250v-274h432v-250h-432v-275h-250v275h-432z" />
<glyph unicode="&#xb2;" horiz-adv-x="681" d="M31 598v154q141 123 226 201.5t132 130t62.5 85t15.5 68.5q0 45 -27.5 78t-91.5 33q-68 0 -98.5 -32t-30.5 -73v-33h-184v43q0 49 20.5 93.5t59.5 78t94 54t125 20.5q141 0 229 -64.5t88 -193.5q0 -78 -40 -145.5t-98 -129t-124.5 -114.5t-118.5 -102h367v-152h-606z" />
<glyph unicode="&#xb3;" horiz-adv-x="681" d="M20 860h185q0 -66 30.5 -94.5t102.5 -28.5q63 0 98 34t35 89q0 74 -46 102.5t-140 28.5v152q86 0 123.5 23.5t37.5 86.5q0 37 -30.5 66t-83.5 29q-47 0 -76 -29t-31 -72h-184q0 63 23.5 111.5t63.5 79t92 46t114 15.5q129 0 213 -61.5t84 -177.5q0 -59 -29 -112.5 t-86 -82.5q78 -29 108.5 -83t30.5 -130q0 -66 -24.5 -116t-67.5 -84t-100 -50t-121 -16q-164 0 -243 74.5t-79 199.5z" />
<glyph unicode="&#xb4;" horiz-adv-x="569" d="M111 1249l190 299h317l-301 -299h-206z" />
<glyph unicode="&#xb5;" d="M123 -393v1507h258v-819q0 -55 20.5 -89t73.5 -34q41 0 84 32t84 68v842h258v-1114h-250v127q-66 -57 -130 -99t-140 -48v-373h-258z" />
<glyph unicode="&#xb6;" horiz-adv-x="1138" d="M20 1112q0 182 102.5 274.5t336.5 92.5h659v-172h-139v-1479h-225v1479h-140v-1479h-225v930q-174 0 -271.5 94t-97.5 260z" />
<glyph unicode="&#xb7;" horiz-adv-x="569" d="M129 557q0 59 43 107.5t113 48.5t112.5 -48.5t42.5 -107.5t-43 -107.5t-112 -48.5q-70 0 -113 48.5t-43 107.5z" />
<glyph unicode="&#xb8;" horiz-adv-x="569" d="M4 -416l39 86q37 -12 76 -23.5t78 -11.5q37 0 75.5 17.5t38.5 62.5q0 35 -24.5 55.5t-59.5 20.5q-25 0 -47 -5t-45 -11l-43 41l121 184h109l-86 -125l4 -4q14 10 30.5 12t32.5 2q35 0 67.5 -11t59.5 -31.5t42 -50.5t15 -66q0 -53 -23.5 -89t-61 -59.5t-84 -34 t-91.5 -10.5q-59 0 -114.5 14t-108.5 37z" />
<glyph unicode="&#xb9;" horiz-adv-x="681" d="M156 1274v110q47 8 78.5 20.5t52 27t35 31t28.5 36.5h127v-901h-184v676h-137z" />
<glyph unicode="&#xba;" horiz-adv-x="614" d="M41 1061v186q0 133 69.5 192.5t196.5 59.5q125 0 195.5 -59.5t70.5 -192.5v-186q0 -135 -70.5 -194.5t-195.5 -59.5q-127 0 -196.5 59.5t-69.5 194.5zM225 1036q0 -39 18.5 -58.5t63.5 -19.5q82 0 82 78v234q0 78 -82 78q-45 0 -63.5 -19.5t-18.5 -58.5v-234z" />
<glyph unicode="&#xbb;" horiz-adv-x="1138" d="M123 229l250 328l-250 328h225l250 -328l-250 -328h-225zM541 229l250 328l-250 328h225l250 -328l-250 -328h-225z" />
<glyph unicode="&#xbc;" horiz-adv-x="1708" d="M164 1274v110q47 8 78.5 20.5t52 27t35 31t28.5 36.5h127v-901h-184v676h-137zM313 -20l830 1519h196l-829 -1519h-197zM909 233v144l408 510h182v-510h135v-144h-135v-233h-184v233h-406zM1106 377h209v268h-4z" />
<glyph unicode="&#xbd;" horiz-adv-x="1708" d="M164 1274v110q47 8 78.5 20.5t52 27t35 31t28.5 36.5h127v-901h-184v676h-137zM276 -20l830 1519h197l-830 -1519h-197zM1014 0v154q141 123 226 201.5t132 130t62.5 85t15.5 68.5q0 45 -27.5 78t-91.5 33q-68 0 -98.5 -32t-30.5 -73v-33h-184v43q0 49 20.5 93.5t59.5 78 t94 54t125 20.5q141 0 229 -64.5t88 -193.5q0 -78 -40 -145.5t-98 -129t-124.5 -114.5t-118.5 -102h367v-152h-606z" />
<glyph unicode="&#xbe;" horiz-adv-x="1708" d="M74 860h184q0 -66 30.5 -94.5t102.5 -28.5q63 0 98 34t35 89q0 74 -46 102.5t-140 28.5v152q86 0 124 23.5t38 86.5q0 37 -31 66t-84 29q-47 0 -75.5 -29t-30.5 -72h-185q0 63 23.5 111.5t63.5 79t92.5 46t113.5 15.5q129 0 213 -61.5t84 -177.5q0 -59 -28.5 -112.5 t-86.5 -82.5q78 -29 109 -83t31 -130q0 -66 -25 -116t-68 -84t-100 -50t-121 -16q-164 0 -242.5 74.5t-78.5 199.5zM354 -20l830 1519h196l-829 -1519h-197zM909 233v144l408 510h182v-510h135v-144h-135v-233h-184v233h-406zM1106 377h209v268h-4z" />
<glyph unicode="&#xbf;" horiz-adv-x="909" d="M94 -37q0 70 46 143.5t101.5 144.5t101.5 139.5t46 129.5v103h225v-201q0 -37 -41 -99.5t-90 -132t-90 -136t-41 -111.5q0 -53 40 -86t89 -33q31 0 61.5 15.5t54.5 41t39 57t17 66.5l236 -65q-39 -154 -146.5 -239t-265.5 -85q-74 0 -142.5 22.5t-121.5 66.5t-86 108.5 t-33 150.5zM356 823v291h291v-291h-291z" />
<glyph unicode="&#xc0;" horiz-adv-x="1138" d="M27 0l366 1479h363l356 -1479h-270l-72 311h-391l-80 -311h-272zM430 561h281l-138 598h-4zM236 1861h317l191 -299h-207z" />
<glyph unicode="&#xc1;" horiz-adv-x="1138" d="M27 0l366 1479h363l356 -1479h-270l-72 311h-391l-80 -311h-272zM430 561h281l-138 598h-4zM396 1562l190 299h317l-301 -299h-206z" />
<glyph unicode="&#xc2;" horiz-adv-x="1138" d="M27 0l366 1479h363l356 -1479h-270l-72 311h-391l-80 -311h-272zM430 561h281l-138 598h-4zM207 1562l234 299h258l233 -299h-231l-131 168l-131 -168h-232z" />
<glyph unicode="&#xc3;" horiz-adv-x="1138" d="M27 0l366 1479h363l356 -1479h-270l-72 311h-391l-80 -311h-272zM430 561h281l-138 598h-4zM195 1575q8 49 25.5 94t46 79.5t68.5 55t95 20.5q41 0 81 -12t77 -25.5t70 -25.5t57 -12q37 0 62.5 25.5t33.5 62.5h133q-10 -49 -26.5 -93.5t-42 -79t-64.5 -55t-94 -20.5 q-41 0 -81 11t-76.5 24.5t-72.5 25t-71 11.5q-39 0 -61.5 -26t-30.5 -60h-129z" />
<glyph unicode="&#xc4;" horiz-adv-x="1138" d="M27 0l366 1479h363l356 -1479h-270l-72 311h-391l-80 -311h-272zM430 561h281l-138 598h-4zM252 1579v233h246v-233h-246zM641 1579v233h246v-233h-246z" />
<glyph unicode="&#xc5;" horiz-adv-x="1138" d="M27 0l366 1479h363l356 -1479h-270l-72 311h-391l-80 -311h-272zM430 561h281l-138 598h-4zM351 1769q0 45 17 85t46 69.5t69 47t85 17.5t85 -17.5t70.5 -47t48 -69.5t17.5 -85t-17.5 -85t-48 -69.5t-70.5 -47t-85 -17.5t-85 17.5t-69 47t-46 69.5t-17 85zM461 1769 q0 -47 30 -77.5t77 -30.5q45 0 77.5 30.5t32.5 77.5q0 45 -32.5 77t-77.5 32q-47 0 -77 -32t-30 -77z" />
<glyph unicode="&#xc6;" horiz-adv-x="2048" d="M29 0l757 1479h1090v-250h-602v-340h452v-250h-452v-389h627v-250h-910v360h-483l-176 -360h-303zM635 610h356v643h-37z" />
<glyph unicode="&#xc7;" horiz-adv-x="1138" d="M102 475v529q0 137 35 231t96.5 152.5t147.5 85t188 26.5t188.5 -26.5t148 -85t96 -152.5t34.5 -231v-5h-282v41q0 123 -49.5 166t-135.5 43t-135 -43t-49 -166v-602q0 -123 49 -166t135 -43t135.5 43t49.5 166v99h282v-62q0 -137 -34.5 -231t-96 -152.5t-147.5 -85 t-189 -26.5q-102 0 -188 26.5t-147.5 85t-96.5 152.5t-35 231zM289 -416l39 86q37 -12 76 -23.5t78 -11.5q37 0 75.5 17.5t38.5 62.5q0 35 -24.5 55.5t-59.5 20.5q-25 0 -47 -5t-45 -11l-43 41l121 184h109l-86 -125l4 -4q14 10 30.5 12t32.5 2q35 0 67.5 -11t59.5 -31.5 t42 -50.5t15 -66q0 -53 -23.5 -89t-61 -59.5t-84 -34t-91.5 -10.5q-59 0 -114.5 14t-108.5 37z" />
<glyph unicode="&#xc8;" d="M127 0v1479h774v-250h-491v-340h374v-250h-374v-389h512v-250h-795zM178 1861h317l191 -299h-207z" />
<glyph unicode="&#xc9;" d="M127 0v1479h774v-250h-491v-340h374v-250h-374v-389h512v-250h-795zM338 1562l190 299h317l-301 -299h-206z" />
<glyph unicode="&#xca;" d="M127 0v1479h774v-250h-491v-340h374v-250h-374v-389h512v-250h-795zM149 1562l234 299h258l233 -299h-231l-131 168l-131 -168h-232z" />
<glyph unicode="&#xcb;" d="M127 0v1479h774v-250h-491v-340h374v-250h-374v-389h512v-250h-795zM194 1579v233h246v-233h-246zM583 1579v233h246v-233h-246z" />
<glyph unicode="&#xcc;" horiz-adv-x="569" d="M143 0v1479h283v-1479h-283zM-49 1861h317l191 -299h-207z" />
<glyph unicode="&#xcd;" horiz-adv-x="569" d="M143 0v1479h283v-1479h-283zM111 1562l190 299h317l-301 -299h-206z" />
<glyph unicode="&#xce;" horiz-adv-x="569" d="M143 0v1479h283v-1479h-283zM-78 1562l234 299h258l233 -299h-231l-131 168l-131 -168h-232z" />
<glyph unicode="&#xcf;" horiz-adv-x="569" d="M143 0v1479h283v-1479h-283zM-33 1579v233h246v-233h-246zM356 1579v233h246v-233h-246z" />
<glyph unicode="&#xd0;" horiz-adv-x="1138" d="M16 639v250h111v590h393q121 0 217.5 -28t163 -89.5t101 -158.5t34.5 -236v-455q0 -139 -34.5 -236.5t-101 -159t-163 -89t-217.5 -27.5h-393v639h-111zM410 250h98q117 0 181.5 64.5t64.5 230.5v389q0 158 -56.5 226.5t-189.5 68.5h-98v-340h180v-250h-180v-389z" />
<glyph unicode="&#xd1;" horiz-adv-x="1251" d="M143 0v1479h310l393 -877h4v877h258v-1479h-270l-432 954h-5v-954h-258zM252 1575q8 49 25.5 94t46 79.5t68.5 55t95 20.5q41 0 81 -12t77 -25.5t70 -25.5t57 -12q37 0 62.5 25.5t33.5 62.5h133q-10 -49 -26.5 -93.5t-42 -79t-64.5 -55t-94 -20.5q-41 0 -81 11 t-76.5 24.5t-72.5 25t-71 11.5q-39 0 -61.5 -26t-30.5 -60h-129z" />
<glyph unicode="&#xd2;" horiz-adv-x="1138" d="M102 475v529q0 137 35 231t96.5 152.5t147.5 85t188 26.5t188.5 -26.5t148 -85t96 -152.5t34.5 -231v-529q0 -137 -34.5 -231t-96 -152.5t-147.5 -85t-189 -26.5q-102 0 -188 26.5t-147.5 85t-96.5 152.5t-35 231zM385 438q0 -123 49 -166t135 -43t135.5 43t49.5 166v602 q0 123 -49.5 166t-135.5 43t-135 -43t-49 -166v-602zM236 1861h317l191 -299h-207z" />
<glyph unicode="&#xd3;" horiz-adv-x="1138" d="M102 475v529q0 137 35 231t96.5 152.5t147.5 85t188 26.5t188.5 -26.5t148 -85t96 -152.5t34.5 -231v-529q0 -137 -34.5 -231t-96 -152.5t-147.5 -85t-189 -26.5q-102 0 -188 26.5t-147.5 85t-96.5 152.5t-35 231zM385 438q0 -123 49 -166t135 -43t135.5 43t49.5 166v602 q0 123 -49.5 166t-135.5 43t-135 -43t-49 -166v-602zM396 1562l190 299h317l-301 -299h-206z" />
<glyph unicode="&#xd4;" horiz-adv-x="1138" d="M102 475v529q0 137 35 231t96.5 152.5t147.5 85t188 26.5t188.5 -26.5t148 -85t96 -152.5t34.5 -231v-529q0 -137 -34.5 -231t-96 -152.5t-147.5 -85t-189 -26.5q-102 0 -188 26.5t-147.5 85t-96.5 152.5t-35 231zM385 438q0 -123 49 -166t135 -43t135.5 43t49.5 166v602 q0 123 -49.5 166t-135.5 43t-135 -43t-49 -166v-602zM207 1562l234 299h258l233 -299h-231l-131 168l-131 -168h-232z" />
<glyph unicode="&#xd5;" horiz-adv-x="1138" d="M102 475v529q0 137 35 231t96.5 152.5t147.5 85t188 26.5t188.5 -26.5t148 -85t96 -152.5t34.5 -231v-529q0 -137 -34.5 -231t-96 -152.5t-147.5 -85t-189 -26.5q-102 0 -188 26.5t-147.5 85t-96.5 152.5t-35 231zM385 438q0 -123 49 -166t135 -43t135.5 43t49.5 166v602 q0 123 -49.5 166t-135.5 43t-135 -43t-49 -166v-602zM195 1575q8 49 25.5 94t46 79.5t68.5 55t95 20.5q41 0 81 -12t77 -25.5t70 -25.5t57 -12q37 0 62.5 25.5t33.5 62.5h133q-10 -49 -26.5 -93.5t-42 -79t-64.5 -55t-94 -20.5q-41 0 -81 11t-76.5 24.5t-72.5 25t-71 11.5 q-39 0 -61.5 -26t-30.5 -60h-129z" />
<glyph unicode="&#xd6;" horiz-adv-x="1138" d="M102 475v529q0 137 35 231t96.5 152.5t147.5 85t188 26.5t188.5 -26.5t148 -85t96 -152.5t34.5 -231v-529q0 -137 -34.5 -231t-96 -152.5t-147.5 -85t-189 -26.5q-102 0 -188 26.5t-147.5 85t-96.5 152.5t-35 231zM385 438q0 -123 49 -166t135 -43t135.5 43t49.5 166v602 q0 123 -49.5 166t-135.5 43t-135 -43t-49 -166v-602zM252 1579v233h246v-233h-246zM641 1579v233h246v-233h-246z" />
<glyph unicode="&#xd7;" horiz-adv-x="1228" d="M57 176l381 381v2l-381 381l179 174l378 -379l381 379l176 -174l-380 -383l380 -381l-176 -176l-381 381l-378 -381z" />
<glyph unicode="&#xd8;" horiz-adv-x="1138" d="M12 -160l166 320q-37 57 -56.5 134t-19.5 181v529q0 137 35 231t96.5 152.5t147.5 85t188 26.5q78 0 145.5 -14.5t125.5 -46.5l73 139h213l-149 -287q59 -113 59 -286v-529q0 -137 -34.5 -231t-96 -152.5t-147.5 -85t-189 -26.5q-70 0 -131 11t-114 40l-99 -191h-213z M385 537h4l332 647q-23 37 -61.5 51t-90.5 14q-86 0 -135 -43t-49 -166v-503zM434 274q23 -25 57.5 -35t77.5 -10q86 0 135.5 43t49.5 166v449h-4z" />
<glyph unicode="&#xd9;" horiz-adv-x="1251" d="M143 442v1037h283v-1035q0 -106 47 -160.5t152 -54.5q201 0 200 215v1035h283v-1037q0 -123 -35 -210t-98.5 -143t-152.5 -82.5t-197 -26.5q-109 0 -198 26.5t-152.5 82.5t-97.5 143t-34 210zM293 1861h317l191 -299h-207z" />
<glyph unicode="&#xda;" horiz-adv-x="1251" d="M143 442v1037h283v-1035q0 -106 47 -160.5t152 -54.5q201 0 200 215v1035h283v-1037q0 -123 -35 -210t-98.5 -143t-152.5 -82.5t-197 -26.5q-109 0 -198 26.5t-152.5 82.5t-97.5 143t-34 210zM453 1562l190 299h317l-301 -299h-206z" />
<glyph unicode="&#xdb;" horiz-adv-x="1251" d="M143 442v1037h283v-1035q0 -106 47 -160.5t152 -54.5q201 0 200 215v1035h283v-1037q0 -123 -35 -210t-98.5 -143t-152.5 -82.5t-197 -26.5q-109 0 -198 26.5t-152.5 82.5t-97.5 143t-34 210zM264 1562l234 299h258l233 -299h-231l-131 168l-131 -168h-232z" />
<glyph unicode="&#xdc;" horiz-adv-x="1251" d="M143 442v1037h283v-1035q0 -106 47 -160.5t152 -54.5q201 0 200 215v1035h283v-1037q0 -123 -35 -210t-98.5 -143t-152.5 -82.5t-197 -26.5q-109 0 -198 26.5t-152.5 82.5t-97.5 143t-34 210zM309 1579v233h246v-233h-246zM698 1579v233h246v-233h-246z" />
<glyph unicode="&#xdd;" horiz-adv-x="1138" d="M25 1479h301l247 -596l240 596h301l-403 -881v-598h-283v598zM396 1562l190 299h317l-301 -299h-206z" />
<glyph unicode="&#xde;" horiz-adv-x="1138" d="M143 0v1479h283v-271h125q262 0 390 -115.5t128 -326.5t-128 -326.5t-390 -115.5h-125v-324h-283zM426 557h152q209 0 208 209q0 209 -208 209h-152v-418z" />
<glyph unicode="&#xdf;" d="M123 0v1071q0 90 18.5 165t62.5 129t118.5 84t187.5 30q178 0 272.5 -105.5t94.5 -306.5q0 -74 -33 -149.5t-101 -112.5q113 -59 153 -158.5t40 -253.5q0 -205 -86 -309t-217 -104q-80 0 -150 30v234q37 -18 82 -19q59 0 86 47t27 156q0 57 -7 105.5t-28.5 81t-58.5 51 t-99 18.5v209q70 4 108 50t38 130q0 78 -30 129t-105 51q-59 0 -87 -36.5t-28 -83.5v-1133h-258z" />
<glyph unicode="&#xe0;" d="M66 246q0 96 43 167.5t119.5 125t180 94.5t224.5 78v82q0 72 -39 102.5t-94 30.5q-59 0 -101.5 -39t-42.5 -99h-258q6 92 43 159t93.5 108t128 60.5t149.5 19.5q102 0 175 -25t118 -70t65.5 -107.5t20.5 -135.5v-707q0 -23 4 -45t10 -45h-258q-4 23 -8 48.5t-10 60.5 q-57 -57 -133 -93t-174 -36q-117 0 -186.5 65.5t-69.5 200.5zM324 289q0 -55 30.5 -86t83.5 -31q59 0 103.5 27.5t91.5 74.5v271q-57 -20 -112.5 -46t-99.5 -58.5t-70.5 -70.5t-26.5 -81zM178 1548h317l191 -299h-207z" />
<glyph unicode="&#xe1;" d="M66 246q0 96 43 167.5t119.5 125t180 94.5t224.5 78v82q0 72 -39 102.5t-94 30.5q-59 0 -101.5 -39t-42.5 -99h-258q6 92 43 159t93.5 108t128 60.5t149.5 19.5q102 0 175 -25t118 -70t65.5 -107.5t20.5 -135.5v-707q0 -23 4 -45t10 -45h-258q-4 23 -8 48.5t-10 60.5 q-57 -57 -133 -93t-174 -36q-117 0 -186.5 65.5t-69.5 200.5zM324 289q0 -55 30.5 -86t83.5 -31q59 0 103.5 27.5t91.5 74.5v271q-57 -20 -112.5 -46t-99.5 -58.5t-70.5 -70.5t-26.5 -81zM338 1249l190 299h317l-301 -299h-206z" />
<glyph unicode="&#xe2;" d="M66 246q0 96 43 167.5t119.5 125t180 94.5t224.5 78v82q0 72 -39 102.5t-94 30.5q-59 0 -101.5 -39t-42.5 -99h-258q6 92 43 159t93.5 108t128 60.5t149.5 19.5q102 0 175 -25t118 -70t65.5 -107.5t20.5 -135.5v-707q0 -23 4 -45t10 -45h-258q-4 23 -8 48.5t-10 60.5 q-57 -57 -133 -93t-174 -36q-117 0 -186.5 65.5t-69.5 200.5zM324 289q0 -55 30.5 -86t83.5 -31q59 0 103.5 27.5t91.5 74.5v271q-57 -20 -112.5 -46t-99.5 -58.5t-70.5 -70.5t-26.5 -81zM149 1249l234 299h258l233 -299h-231l-131 168l-131 -168h-232z" />
<glyph unicode="&#xe3;" d="M66 246q0 96 43 167.5t119.5 125t180 94.5t224.5 78v82q0 72 -39 102.5t-94 30.5q-59 0 -101.5 -39t-42.5 -99h-258q6 92 43 159t93.5 108t128 60.5t149.5 19.5q102 0 175 -25t118 -70t65.5 -107.5t20.5 -135.5v-707q0 -23 4 -45t10 -45h-258q-4 23 -8 48.5t-10 60.5 q-57 -57 -133 -93t-174 -36q-117 0 -186.5 65.5t-69.5 200.5zM324 289q0 -55 30.5 -86t83.5 -31q59 0 103.5 27.5t91.5 74.5v271q-57 -20 -112.5 -46t-99.5 -58.5t-70.5 -70.5t-26.5 -81zM137 1262q8 49 25.5 94t46 79.5t68.5 55t95 20.5q41 0 81 -12t77 -25.5t70 -25.5 t57 -12q37 0 62.5 25.5t33.5 62.5h133q-10 -49 -26.5 -93.5t-42 -79t-64.5 -55t-94 -20.5q-41 0 -81 11t-76.5 24.5t-72.5 25t-71 11.5q-39 0 -61.5 -26t-30.5 -60h-129z" />
<glyph unicode="&#xe4;" d="M66 246q0 96 43 167.5t119.5 125t180 94.5t224.5 78v82q0 72 -39 102.5t-94 30.5q-59 0 -101.5 -39t-42.5 -99h-258q6 92 43 159t93.5 108t128 60.5t149.5 19.5q102 0 175 -25t118 -70t65.5 -107.5t20.5 -135.5v-707q0 -23 4 -45t10 -45h-258q-4 23 -8 48.5t-10 60.5 q-57 -57 -133 -93t-174 -36q-117 0 -186.5 65.5t-69.5 200.5zM324 289q0 -55 30.5 -86t83.5 -31q59 0 103.5 27.5t91.5 74.5v271q-57 -20 -112.5 -46t-99.5 -58.5t-70.5 -70.5t-26.5 -81zM194 1266v233h246v-233h-246zM583 1266v233h246v-233h-246z" />
<glyph unicode="&#xe5;" d="M66 246q0 96 43 167.5t119.5 125t180 94.5t224.5 78v82q0 72 -39 102.5t-94 30.5q-59 0 -101.5 -39t-42.5 -99h-258q6 92 43 159t93.5 108t128 60.5t149.5 19.5q102 0 175 -25t118 -70t65.5 -107.5t20.5 -135.5v-707q0 -23 4 -45t10 -45h-258q-4 23 -8 48.5t-10 60.5 q-57 -57 -133 -93t-174 -36q-117 0 -186.5 65.5t-69.5 200.5zM324 289q0 -55 30.5 -86t83.5 -31q59 0 103.5 27.5t91.5 74.5v271q-57 -20 -112.5 -46t-99.5 -58.5t-70.5 -70.5t-26.5 -81zM293 1456q0 45 17 85t46 69.5t69 47t85 17.5t85 -17.5t70.5 -47t48 -69.5t17.5 -85 t-17.5 -85t-48 -69.5t-70.5 -47t-85 -17.5t-85 17.5t-69 47t-46 69.5t-17 85zM403 1456q0 -47 30 -77.5t77 -30.5q45 0 77.5 30.5t32.5 77.5q0 45 -32.5 77t-77.5 32q-47 0 -77 -32t-30 -77z" />
<glyph unicode="&#xe6;" horiz-adv-x="1593" d="M94 246q0 96 43 167.5t118 125t176 94.5t216 78v82q0 72 -31.5 102.5t-87.5 30.5q-59 0 -101 -39t-42 -99h-258q6 92 42 159t90 108t118.5 60.5t130.5 19.5q98 0 173 -34t122 -93q49 55 118.5 91t155.5 36q82 0 154 -28t124 -77t81.5 -118.5t29.5 -155.5v-260h-561v-148 q0 -84 43 -122t109 -38q82 0 116.5 45.5t34.5 110.5h258q-10 -174 -111.5 -269t-297.5 -95q-70 0 -125 15t-97 36.5t-71 47t-45 44.5q-66 -49 -117 -78t-94 -43t-82 -18t-76 -4q-117 0 -186.5 65.5t-69.5 200.5zM352 289q0 -55 31 -86t84 -31q59 0 102 27.5t78 74.5v271 q-53 -20 -105.5 -46t-94 -58.5t-68.5 -70.5t-27 -81zM905 705h303v61q0 74 -36.5 117t-114.5 43t-115 -43t-37 -117v-61z" />
<glyph unicode="&#xe7;" d="M102 401v312q0 221 107.5 321.5t302.5 100.5q190 0 296.5 -96.5t111.5 -309.5h-256v49q0 66 -42 98.5t-110 32.5t-110 -32.5t-42 -98.5v-442q0 -66 42 -98.5t110 -32.5t110 32.5t42 98.5v70h258v-5q0 -221 -108.5 -321t-301.5 -100q-195 0 -302.5 100t-107.5 321z M231 -416l39 86q37 -12 76 -23.5t78 -11.5q37 0 75.5 17.5t38.5 62.5q0 35 -24.5 55.5t-59.5 20.5q-25 0 -47 -5t-45 -11l-43 41l121 184h109l-86 -125l4 -4q14 10 30.5 12t32.5 2q35 0 67.5 -11t59.5 -31.5t42 -50.5t15 -66q0 -53 -23.5 -89t-61 -59.5t-84 -34t-91.5 -10.5 q-59 0 -114.5 14t-108.5 37z" />
<glyph unicode="&#xe8;" d="M102 375v364q0 92 30 165t83 124t129 79t168 28q90 0 165 -28t129 -77t85 -118.5t31 -155.5v-260h-562v-148q0 -84 43 -122t109 -38q82 0 117 45.5t35 110.5h258q-10 -174 -111.5 -269t-298.5 -95q-92 0 -168 27.5t-129 78.5t-83 124t-30 165zM360 705h304v61 q0 74 -37 117t-115 43t-115 -43t-37 -117v-61zM178 1548h317l191 -299h-207z" />
<glyph unicode="&#xe9;" d="M102 375v364q0 92 30 165t83 124t129 79t168 28q90 0 165 -28t129 -77t85 -118.5t31 -155.5v-260h-562v-148q0 -84 43 -122t109 -38q82 0 117 45.5t35 110.5h258q-10 -174 -111.5 -269t-298.5 -95q-92 0 -168 27.5t-129 78.5t-83 124t-30 165zM360 705h304v61 q0 74 -37 117t-115 43t-115 -43t-37 -117v-61zM338 1249l190 299h317l-301 -299h-206z" />
<glyph unicode="&#xea;" d="M102 375v364q0 92 30 165t83 124t129 79t168 28q90 0 165 -28t129 -77t85 -118.5t31 -155.5v-260h-562v-148q0 -84 43 -122t109 -38q82 0 117 45.5t35 110.5h258q-10 -174 -111.5 -269t-298.5 -95q-92 0 -168 27.5t-129 78.5t-83 124t-30 165zM360 705h304v61 q0 74 -37 117t-115 43t-115 -43t-37 -117v-61zM149 1249l234 299h258l233 -299h-231l-131 168l-131 -168h-232z" />
<glyph unicode="&#xeb;" d="M102 375v364q0 92 30 165t83 124t129 79t168 28q90 0 165 -28t129 -77t85 -118.5t31 -155.5v-260h-562v-148q0 -84 43 -122t109 -38q82 0 117 45.5t35 110.5h258q-10 -174 -111.5 -269t-298.5 -95q-92 0 -168 27.5t-129 78.5t-83 124t-30 165zM360 705h304v61 q0 74 -37 117t-115 43t-115 -43t-37 -117v-61zM194 1266v233h246v-233h-246zM583 1266v233h246v-233h-246z" />
<glyph unicode="&#xec;" horiz-adv-x="569" d="M156 0v1114h258v-1114h-258zM-49 1548h317l191 -299h-207z" />
<glyph unicode="&#xed;" horiz-adv-x="569" d="M156 0v1114h258v-1114h-258zM111 1249l190 299h317l-301 -299h-206z" />
<glyph unicode="&#xee;" horiz-adv-x="569" d="M156 0v1114h258v-1114h-258zM-78 1249l234 299h258l233 -299h-231l-131 168l-131 -168h-232z" />
<glyph unicode="&#xef;" horiz-adv-x="569" d="M156 0v1114h258v-1114h-258zM-33 1266v233h246v-233h-246zM356 1266v233h246v-233h-246z" />
<glyph unicode="&#xf0;" d="M102 375v293q0 209 107.5 303t302.5 94q23 0 41 -1t47 -7q-8 35 -21.5 66.5t-29.5 64.5l-225 -78l-62 152l195 67q-23 31 -47.5 60.5t-49.5 60.5l242 29l33 -37q16 -18 33 -39l221 76l61 -152l-186 -65q158 -268 158 -594v-293q0 -209 -107.5 -302t-302.5 -93t-302.5 93 t-107.5 302zM360 328q0 -59 42 -91t110 -32t110 31.5t42 91.5v389q0 61 -42 92t-110 31t-110 -31t-42 -92v-389z" />
<glyph unicode="&#xf1;" d="M123 0v1114h250v-127q72 61 140.5 104.5t148.5 43.5q119 0 179 -65.5t60 -221.5v-848h-258v819q0 55 -20.5 89t-73.5 34q-41 0 -84 -31.5t-84 -68.5v-842h-258zM137 1262q8 49 25.5 94t46 79.5t68.5 55t95 20.5q41 0 81 -12t77 -25.5t70 -25.5t57 -12q37 0 62.5 25.5 t33.5 62.5h133q-10 -49 -26.5 -93.5t-42 -79t-64.5 -55t-94 -20.5q-41 0 -81 11t-76.5 24.5t-72.5 25t-71 11.5q-39 0 -61.5 -26t-30.5 -60h-129z" />
<glyph unicode="&#xf2;" d="M102 401v312q0 221 107.5 321.5t302.5 100.5q193 0 301.5 -100.5t108.5 -321.5v-312q0 -221 -108.5 -321t-301.5 -100q-195 0 -302.5 100t-107.5 321zM360 336q0 -66 42 -98.5t110 -32.5t110 32.5t42 98.5v442q0 66 -42 98.5t-110 32.5t-110 -32.5t-42 -98.5v-442z M178 1548h317l191 -299h-207z" />
<glyph unicode="&#xf3;" d="M102 401v312q0 221 107.5 321.5t302.5 100.5q193 0 301.5 -100.5t108.5 -321.5v-312q0 -221 -108.5 -321t-301.5 -100q-195 0 -302.5 100t-107.5 321zM360 336q0 -66 42 -98.5t110 -32.5t110 32.5t42 98.5v442q0 66 -42 98.5t-110 32.5t-110 -32.5t-42 -98.5v-442z M338 1249l190 299h317l-301 -299h-206z" />
<glyph unicode="&#xf4;" d="M102 401v312q0 221 107.5 321.5t302.5 100.5q193 0 301.5 -100.5t108.5 -321.5v-312q0 -221 -108.5 -321t-301.5 -100q-195 0 -302.5 100t-107.5 321zM360 336q0 -66 42 -98.5t110 -32.5t110 32.5t42 98.5v442q0 66 -42 98.5t-110 32.5t-110 -32.5t-42 -98.5v-442z M149 1249l234 299h258l233 -299h-231l-131 168l-131 -168h-232z" />
<glyph unicode="&#xf5;" d="M102 401v312q0 221 107.5 321.5t302.5 100.5q193 0 301.5 -100.5t108.5 -321.5v-312q0 -221 -108.5 -321t-301.5 -100q-195 0 -302.5 100t-107.5 321zM360 336q0 -66 42 -98.5t110 -32.5t110 32.5t42 98.5v442q0 66 -42 98.5t-110 32.5t-110 -32.5t-42 -98.5v-442z M137 1262q8 49 25.5 94t46 79.5t68.5 55t95 20.5q41 0 81 -12t77 -25.5t70 -25.5t57 -12q37 0 62.5 25.5t33.5 62.5h133q-10 -49 -26.5 -93.5t-42 -79t-64.5 -55t-94 -20.5q-41 0 -81 11t-76.5 24.5t-72.5 25t-71 11.5q-39 0 -61.5 -26t-30.5 -60h-129z" />
<glyph unicode="&#xf6;" d="M102 401v312q0 221 107.5 321.5t302.5 100.5q193 0 301.5 -100.5t108.5 -321.5v-312q0 -221 -108.5 -321t-301.5 -100q-195 0 -302.5 100t-107.5 321zM360 336q0 -66 42 -98.5t110 -32.5t110 32.5t42 98.5v442q0 66 -42 98.5t-110 32.5t-110 -32.5t-42 -98.5v-442z M194 1266v233h246v-233h-246zM583 1266v233h246v-233h-246z" />
<glyph unicode="&#xf7;" horiz-adv-x="1228" d="M57 432v250h1114v-250h-1114zM418 100q0 41 15.5 77t43 61.5t62 41t75.5 15.5q39 0 74 -15.5t61.5 -42t42 -62.5t15.5 -75q0 -37 -15.5 -71.5t-42 -62t-61.5 -44t-72 -16.5q-41 0 -76.5 15.5t-63 42t-43 62t-15.5 74.5zM418 1014q0 39 15.5 74.5t43 62.5t62 42t75.5 15 q39 0 74 -15t61.5 -42t42 -62.5t15.5 -74.5q0 -37 -15.5 -72t-42 -62.5t-61.5 -44t-72 -16.5q-41 0 -76.5 15.5t-63 42t-43 61.5t-15.5 76z" />
<glyph unicode="&#xf8;" d="M8 -229l180 335q-86 100 -86 295v312q0 221 107.5 321.5t302.5 100.5q123 0 209 -39l104 194h183l-160 -299q74 -98 74 -278v-312q0 -221 -108.5 -321t-301.5 -100q-115 0 -193 32l-129 -241h-182zM360 428h5l241 457q-37 25 -94 24q-68 0 -110 -32.5t-42 -98.5v-350z M432 221q33 -16 80 -16q68 0 110 32.5t42 98.5v313h-5z" />
<glyph unicode="&#xf9;" d="M123 266v848h258v-819q0 -55 20.5 -89t73.5 -34q41 0 84 32t84 68v842h258v-1114h-250v127q-72 -61 -140.5 -104t-148.5 -43q-119 0 -179 65t-60 221zM160 1548h317l191 -299h-207z" />
<glyph unicode="&#xfa;" d="M123 266v848h258v-819q0 -55 20.5 -89t73.5 -34q41 0 84 32t84 68v842h258v-1114h-250v127q-72 -61 -140.5 -104t-148.5 -43q-119 0 -179 65t-60 221zM320 1249l190 299h317l-301 -299h-206z" />
<glyph unicode="&#xfb;" d="M123 266v848h258v-819q0 -55 20.5 -89t73.5 -34q41 0 84 32t84 68v842h258v-1114h-250v127q-72 -61 -140.5 -104t-148.5 -43q-119 0 -179 65t-60 221zM131 1249l234 299h258l233 -299h-231l-131 168l-131 -168h-232z" />
<glyph unicode="&#xfc;" d="M123 266v848h258v-819q0 -55 20.5 -89t73.5 -34q41 0 84 32t84 68v842h258v-1114h-250v127q-72 -61 -140.5 -104t-148.5 -43q-119 0 -179 65t-60 221zM176 1266v233h246v-233h-246zM565 1266v233h246v-233h-246z" />
<glyph unicode="&#xfd;" horiz-adv-x="909" d="M23 1114h262l174 -737h4l162 737h262l-297 -1110q-31 -113 -67 -189.5t-87 -122.5t-121.5 -65.5t-167.5 -19.5q-18 0 -38.5 1t-42.5 3v225q18 -4 36 -4h39q43 0 77 16.5t58.5 39t38 48t13.5 44.5q0 49 -13.5 106t-33.5 129zM281 1249l190 299h317l-301 -299h-206z" />
<glyph unicode="&#xfe;" d="M123 -393v1872h254v-480h4q10 18 35.5 42t60.5 44.5t77 35t85 14.5q152 0 217.5 -113t65.5 -330v-270q0 -217 -65.5 -329.5t-217.5 -112.5q-53 0 -109.5 27.5t-148.5 94.5v-495h-258zM381 252q74 -80 156 -80q27 0 49 10.5t39.5 40t28 80.5t10.5 135v238q0 82 -10.5 134 t-28 82t-40 40t-48.5 10q-82 0 -156 -80v-610z" />
<glyph unicode="&#xff;" horiz-adv-x="909" d="M23 1114h262l174 -737h4l162 737h262l-297 -1110q-31 -113 -67 -189.5t-87 -122.5t-121.5 -65.5t-167.5 -19.5q-18 0 -38.5 1t-42.5 3v225q18 -4 36 -4h39q43 0 77 16.5t58.5 39t38 48t13.5 44.5q0 49 -13.5 106t-33.5 129zM137 1266v233h246v-233h-246zM526 1266v233 h246v-233h-246z" />
<glyph unicode="&#x131;" horiz-adv-x="569" d="M156 0v1114h258v-1114h-258z" />
<glyph unicode="&#x152;" horiz-adv-x="1933" d="M119 559v391q0 139 42 242.5t118.5 171.5t184 101.5t236.5 33.5q74 0 128.5 -3t102.5 -7t97 -7t115 -3h669v-250h-608v-340h457v-250h-457v-389h627v-250h-846q-53 0 -93 -3t-79 -7t-83 -7t-105 -3q-115 0 -208 38.5t-160 113.5t-102.5 182.5t-35.5 244.5zM401 586 q0 -102 15.5 -170t50.5 -110t90 -59.5t135 -17.5q68 0 113 17.5t70.5 51.5t36 83t10.5 115v487q0 63 -10.5 113.5t-36 84t-70.5 51t-113 17.5q-80 0 -135 -17.5t-90 -59.5t-50.5 -110.5t-15.5 -168.5v-307z" />
<glyph unicode="&#x153;" horiz-adv-x="1593" d="M102 401v312q0 221 106.5 321.5t291.5 100.5q106 0 179 -41t116 -107q45 66 119.5 107t179.5 41q86 0 158.5 -28t126 -77t83 -118.5t29.5 -155.5v-260h-569v-148q0 -84 47 -122t112 -38q82 0 117 45.5t35 110.5h258q-10 -174 -111.5 -269t-298.5 -95q-96 0 -168.5 40.5 t-117.5 106.5q-43 -66 -116 -106.5t-179 -40.5q-184 0 -291 100t-107 321zM360 336q0 -66 42 -98.5t110 -32.5t110 32.5t42 98.5v442q0 66 -42 98.5t-110 32.5t-110 -32.5t-42 -98.5v-442zM922 705h311v61q0 74 -37 117t-115 43t-118.5 -43t-40.5 -117v-61z" />
<glyph unicode="&#x178;" horiz-adv-x="1138" d="M25 1479h301l247 -596l240 596h301l-403 -881v-598h-283v598zM252 1579v233h246v-233h-246zM641 1579v233h246v-233h-246z" />
<glyph unicode="&#x2c6;" horiz-adv-x="569" d="M-78 1249l234 299h258l233 -299h-231l-131 168l-131 -168h-232z" />
<glyph unicode="&#x2da;" horiz-adv-x="569" d="M66 1456q0 45 17 85t46 69.5t69 47t85 17.5t85 -17.5t70.5 -47t48 -69.5t17.5 -85t-17.5 -85t-48 -69.5t-70.5 -47t-85 -17.5t-85 17.5t-69 47t-46 69.5t-17 85zM176 1456q0 -47 30 -77.5t77 -30.5q45 0 77.5 30.5t32.5 77.5q0 45 -32.5 77t-77.5 32q-47 0 -77 -32 t-30 -77z" />
<glyph unicode="&#x2dc;" horiz-adv-x="569" d="M-90 1262q8 49 25.5 94t46 79.5t68.5 55t95 20.5q41 0 81 -12t77 -25.5t70 -25.5t57 -12q37 0 62.5 25.5t33.5 62.5h133q-10 -49 -26.5 -93.5t-42 -79t-64.5 -55t-94 -20.5q-41 0 -81 11t-76.5 24.5t-72.5 25t-71 11.5q-39 0 -61.5 -26t-30.5 -60h-129z" />
<glyph unicode="&#x2013;" d="M0 471v172h1024v-172h-1024z" />
<glyph unicode="&#x2014;" horiz-adv-x="2048" d="M0 471v172h2048v-172h-2048z" />
<glyph unicode="&#x2018;" horiz-adv-x="454" d="M82 905v291l129 303h143l-104 -303h123v-291h-291z" />
<glyph unicode="&#x2019;" horiz-adv-x="454" d="M82 1188v291h291v-291l-129 -303h-144l105 303h-123z" />
<glyph unicode="&#x201a;" horiz-adv-x="454" d="M82 0v291h291v-291l-129 -303h-144l105 303h-123z" />
<glyph unicode="&#x201c;" horiz-adv-x="909" d="M82 905v291l129 303h143l-104 -303h123v-291h-291zM537 905v291l129 303h143l-104 -303h122v-291h-290z" />
<glyph unicode="&#x201d;" horiz-adv-x="909" d="M82 1188v291h291v-291l-129 -303h-144l105 303h-123zM537 1188v291h290v-291l-129 -303h-143l104 303h-122z" />
<glyph unicode="&#x201e;" horiz-adv-x="909" d="M82 0v291h291v-291l-129 -303h-144l105 303h-123zM537 0v291h290v-291l-129 -303h-143l104 303h-122z" />
<glyph unicode="&#x2022;" d="M141 739q0 76 29 143.5t79 118t116.5 79t144.5 28.5q76 0 143.5 -28.5t118.5 -79t80 -118t29 -143.5q0 -78 -29 -144.5t-80 -117.5t-118.5 -79.5t-143.5 -28.5q-78 0 -144.5 28.5t-116.5 79.5t-79 117.5t-29 144.5z" />
<glyph unicode="&#x2026;" horiz-adv-x="2048" d="M197 0v291h290v-291h-290zM879 0v291h290v-291h-290zM1561 0v291h290v-291h-290z" />
<glyph unicode="&#x2039;" horiz-adv-x="681" d="M78 557l250 328h225l-250 -328l250 -328h-225z" />
<glyph unicode="&#x203a;" horiz-adv-x="681" d="M129 229l250 328l-250 328h225l250 -328l-250 -328h-225z" />
<glyph unicode="&#x2122;" horiz-adv-x="2048" d="M66 1307v172h698v-172h-236v-672h-229v672h-233zM899 635v844h313l193 -512l190 512h314v-844h-217v573h-4l-201 -573h-166l-201 573h-4v-573h-217z" />
<glyph unicode="&#xe000;" horiz-adv-x="1115" d="M0 1115h1115v-1115h-1115v1115z" />
<glyph unicode="&#xfb01;" d="M16 856v209h117v106q0 96 19.5 160t58.5 100.5t93 52t126 15.5q29 0 59.5 -4t63.5 -8v-213h-74q-47 0 -67.5 -26.5t-20.5 -67.5v-115h154v-209h-154v-856h-258v856h-117zM659 0v1065h259v-1065h-259zM659 1257v234h259v-234h-259z" />
<glyph unicode="&#xfb02;" d="M16 856v209h117v106q0 96 19.5 160t58.5 100.5t93 52t126 15.5q29 0 59.5 -4t63.5 -8v-213h-74q-47 0 -67.5 -26.5t-20.5 -67.5v-115h154v-209h-154v-856h-258v856h-117zM659 0v1479h259v-1479h-259z" />
<glyph unicode="&#xfb03;" horiz-adv-x="1708" d="M1295 0v1114h258v-1114h-258zM1295 1307v233h258v-233h-258zM585 856v209h117v106q0 96 19.5 160t58.5 100.5t93 52t126 15.5q29 0 59.5 -4t63.5 -8v-213h-74q-47 0 -67.5 -26.5t-20.5 -67.5v-115h154v-209h-154v-856h-258v856h-117zM16 856v209h117v106q0 96 19.5 160 t58.5 100.5t93 52t126 15.5q29 0 59.5 -4t63.5 -8v-213h-74q-47 0 -67.5 -26.5t-20.5 -67.5v-115h154v-209h-154v-856h-258v856h-117z" />
<glyph unicode="&#xfb04;" horiz-adv-x="1708" d="M1295 0v1479h258v-1479h-258zM585 856v209h117v106q0 96 19.5 160t58.5 100.5t93 52t126 15.5q29 0 59.5 -4t63.5 -8v-213h-74q-47 0 -67.5 -26.5t-20.5 -67.5v-115h154v-209h-154v-856h-258v856h-117zM16 856v209h117v106q0 96 19.5 160t58.5 100.5t93 52t126 15.5 q29 0 59.5 -4t63.5 -8v-213h-74q-47 0 -67.5 -26.5t-20.5 -67.5v-115h154v-209h-154v-856h-258v856h-117z" />
</font>
</defs>
</svg>
